<!-- Generator: Adobe Illustrator 18.1.1, SVG Export Plug-In  -->
<svg version="1.1"
	 xmlns="http://www.w3.org/2000/svg" xmlns:xlink="http://www.w3.org/1999/xlink" xmlns:a="http://ns.adobe.com/AdobeSVGViewerExtensions/3.0/"
	 x="0px" y="0px" width="388.066px" height="121.153px" viewBox="0 0 388.066 121.153" enable-background="new 0 0 388.066 121.153"
	 xml:space="preserve">
<defs>
</defs>
<path fill="#FFFFFF" d="M154.239,46.788V2.111h8.947c3.378,0,6.577,0.239,9.245,2.609c2.725,2.37,3.73,5.686,3.73,9.243
	c0,4.088-1.6,7.109-5.154,9.126c5.512,1.124,9.244,5.566,9.244,11.257c0,3.612-1.364,6.871-4.147,9.241
	c-3.141,2.667-6.459,3.201-10.43,3.201H154.239z M157.085,22.376H162c3.022,0,5.452,0.179,8.001-1.66
	c2.547-1.835,3.317-4.088,3.317-7.168c0-2.903-1.126-5.749-3.674-7.349c-2.252-1.42-5.037-1.42-7.645-1.42h-4.916V22.376z
	 M157.085,44.12h6.813c3.14,0,6.399,0.119,9.124-1.717c2.725-1.835,4.385-4.622,4.385-7.939c0-3.258-1.6-6.519-4.62-7.999
	c-2.727-1.362-6.459-1.421-9.421-1.421h-6.281V44.12z"/>
<path fill="#FFFFFF" d="M206.85,46.788h-3.262l-14.572-21.152h-1.424v21.152h-2.844V2.111h5.57c3.614,0,7.171,0.06,10.193,2.253
	c3.198,2.251,4.5,5.807,4.5,9.599c0,7.76-5.389,11.791-12.798,11.672L206.85,46.788z M191.208,22.969
	c2.785,0,5.569-0.119,7.819-2.073c2.133-1.718,3.142-4.385,3.142-7.053c0-3.316-1.539-6.635-4.74-8.056
	c-2.37-1.126-5.392-1.007-7.998-1.007h-1.839v18.189H191.208z"/>
<path fill="#FFFFFF" d="M215.081,32.092l-5.986,14.695h-2.901l18.726-46.155l18.663,46.155h-2.905l-5.982-14.695H215.081z
	 M224.919,7.859l-8.77,21.568h17.476L224.919,7.859z"/>
<path fill="#FFFFFF" d="M281.201,11.236c-3.438-4.207-9.481-7.051-14.994-7.051c-11.136,0-20.319,9.598-20.319,20.56
	c0,5.215,2.251,10.131,5.982,13.807c3.732,3.553,9.064,6.16,14.337,6.16c5.156,0,11.676-2.784,14.994-6.812v3.91
	c-4.209,3.496-9.364,5.569-14.877,5.569c-12.439,0-23.281-10.369-23.281-22.87c0-12.68,10.665-22.991,23.344-22.991
	c5.39,0,10.843,2.135,14.814,5.807V11.236z"/>
<path fill="#FFFFFF" d="M289.368,4.779v16.234h18.013v2.667h-18.013V44.12h18.486v2.668h-21.331V2.111h21.331v2.669H289.368z"/>
<path fill="#FFFFFF" d="M321.597,46.788h-5.336V1.852h5.336V46.788z"/>
<path fill="#FFFFFF" d="M331.786,33.812c0.057,4.74,3.258,9.183,8.354,9.183c4.086,0,6.28-2.074,8.294-5.393l4.503,2.549
	c-2.605,4.798-7.468,7.583-12.859,7.583c-8.472,0-13.624-6.398-13.624-14.575c0-8.533,4.56-14.931,13.507-14.931
	c8.827,0,12.977,6.517,12.977,14.753v0.831H331.786z M347.603,29.782c-0.653-4.147-3.378-6.933-7.643-6.933
	c-4.146,0-7.227,2.964-7.877,6.933H347.603z"/>
<path fill="#FFFFFF" d="M363.004,46.788h-5.336V24.036h-2.898v-4.978h2.898V8.452h5.336v10.607h5.215v4.978h-5.215V46.788z"/>
<path fill="#FFFFFF" d="M138.772,81.643c0,9.4-7.337,16.536-16.67,16.536c-9.125,0-16.467-7.478-16.467-16.466
	c0-9.125,7.272-16.602,16.467-16.602C131.435,65.111,138.772,72.246,138.772,81.643z M108.725,81.713
	c0,7.202,5.693,13.58,13.173,13.58c7.75,0,13.785-5.898,13.785-13.58c0-7.822-5.966-13.72-13.785-13.72
	C114.351,67.993,108.725,74.373,108.725,81.713z"/>
<path fill="#FFFFFF" d="M148.648,70.736h0.139c1.849-3.499,5.279-5.625,9.398-5.625c8.164,0,10.429,5.075,10.429,13.241V97.49
	h-3.087V78.352c0-5.696-0.691-10.359-7.618-10.359c-7.959,0-9.26,7.408-9.26,13.858V97.49h-3.087V65.796h3.087V70.736z"/>
<path fill="#FFFFFF" d="M181.571,70.736h0.139c1.854-3.499,5.279-5.625,9.398-5.625c8.165,0,10.429,5.075,10.429,13.241V97.49h-3.09
	V78.352c0-5.696-0.684-10.359-7.61-10.359c-7.96,0-9.266,7.408-9.266,13.858V97.49h-3.087V65.796h3.087V70.736z"/>
<path fill="#FFFFFF" d="M211.413,81.919c-0.208,8.028,5.349,13.374,12.692,13.374c4.938,0,8.919-2.947,11.18-7.202l2.604,1.511
	c-2.879,5.488-7.956,8.576-14.201,8.576c-9.395,0-15.363-7.616-15.363-16.604c0-8.85,6.106-16.463,15.363-16.463
	c9.607,0,15.304,7.682,15.23,16.808H211.413z M235.834,79.038c-0.755-5.833-5.557-11.045-12.076-11.045
	c-6.451,0-11.799,5.074-12.346,11.045H235.834z"/>
<path fill="#FFFFFF" d="M269.996,73.137c-3.022-3.293-6.655-5.144-11.187-5.144c-7.477,0-13.103,6.38-13.103,13.581
	c0,7.204,5.557,13.718,13.04,13.718c4.521,0,8.776-2.191,11.656-5.69v4.183c-3.224,2.813-7.271,4.394-11.521,4.394
	c-9.402,0-16.264-7.342-16.264-16.604c0-9.191,7-16.463,16.333-16.463c4.11,0,7.887,1.234,11.044,3.91V73.137z"/>
<path fill="#FFFFFF" d="M281.168,97.49h-3.088V68.677h-3.494v-2.881h3.494v-11.32h3.088v11.32h5.557v2.881h-5.557V97.49z"/>
<path fill="#FFFFFF" d="M141.51,9.815h-0.119l-15.583,38.454L110.285,9.815h-0.118l-7.645,36.973h-2.724l9.597-46.155l16.413,40.645
	l16.471-40.645l9.601,46.155h-2.728L141.51,9.815z"/>
<path fill="#FFFFFF" d="M381.669,25.398c-0.653-1.362-2.018-2.43-3.562-2.43c-1.48,0-2.898,1.184-2.898,2.725
	c0,2.43,3.198,3.498,6.46,4.978c3.258,1.481,6.396,3.495,6.396,7.881c0,5.271-4.386,9.182-9.538,9.182
	c-4.028,0-8.117-2.311-9.598-6.221l4.559-2.073c1.127,2.073,2.488,3.554,5.039,3.554c2.248,0,4.209-1.541,4.209-3.911
	c0-1.481-0.714-2.193-1.961-3.021l-5.209-2.786c-3.085-1.659-5.336-3.2-5.336-6.991c0-4.505,3.672-8.058,8.177-8.058
	c3.379,0,6.104,1.835,7.587,4.86L381.669,25.398z"/>
<polygon fill="#FFFFFF" points="74.87,3.385 98.321,3.385 98.321,0 71.262,0 71.262,56.676 98.321,56.676 98.321,53.291 
	74.87,53.291 74.87,29.147 92.706,29.147 92.706,26.473 74.87,26.473 74.87,23.979 "/>
<path fill="#FFFFFF" d="M19.917,73.176C30.308,61.735,33.061,45.38,33.061,45.38l7.786,0.117
	c-3.981-6.037-10.815-10.026-18.587-10.026C9.966,35.471,0,45.437,0,57.73c0,12.293,9.966,22.259,22.259,22.259
	c0.697,0,1.384-0.041,2.065-0.104L19.917,73.176z"/>
<g>
	<path fill="#FFFFFF" d="M39.608,39.282c6.372-7.971,15.395-13.487,25.849-14.633c5.732-4.948,0.078-9.26,0.078-9.26
		c-13.987,1.216-25.957,8.194-34.066,18.693C34.517,35.288,37.271,37.063,39.608,39.282z"/>
	<path fill="#FFFFFF" d="M95.585,102.761c-7.618,5.787-16.74,9.15-26.266,9.15c-18.238,0-32.714-13.438-37.731-30.669
		c-2.903,1.166-6.064,1.824-9.381,1.832c5.752,22.162,24.023,38.08,47.528,38.08c11.427,0,22.37-3.961,31.525-11.101
		C103.328,101.296,95.585,102.761,95.585,102.761z"/>
</g>
<path fill="#FFFFFF" d="M45.75,65.688l-1.82-2.932c0.374-1.617,0.589-3.295,0.589-5.025c0-3.234-0.705-6.298-1.945-9.071
	l-6.975-0.024c-4.741,17.332-11.587,24.851-11.587,24.851l3.747,5.791c6.002-1.528,11.034-5.488,13.973-10.77l2.827-0.593
	c0.758-0.101,1.432-0.663,1.432-1.44C45.99,66.182,45.901,65.911,45.75,65.688z"/>
<g>
	<path fill="#FFFFFF" d="M86.388,72.427c1.772-0.971,3.838-1.543,6.063-1.543c2.771,0,5.306,0.87,7.317,2.321
		c5.231-1.26,2.575-5.593,2.575-5.593c-2.851-1.575-6.227-2.488-9.892-2.488c-4.163,0-7.957,1.174-11.023,3.169
		C83.435,69.198,85.15,70.633,86.388,72.427z"/>
	<path fill="#FFFFFF" d="M99.325,90.682c-1.935,1.277-4.302,2.037-6.874,2.037c-3.581,0-6.76-1.481-8.931-3.767
		c-1.849,1.336-4.092,2.152-6.524,2.25c3.306,4.439,8.944,7.277,15.456,7.277c3.664,0,7.04-0.912,9.892-2.49
		C102.342,95.989,104.829,90.903,99.325,90.682z"/>
</g>
<g>
	<path fill="#FFFFFF" d="M78.15,69.956c-0.526-0.091-1.063-0.148-1.615-0.148c-5.231,0-9.472,4.241-9.472,9.472
		c0,4.445,3.067,8.166,7.198,9.185C69.526,78.513,76.424,71.497,78.15,69.956z"/>
	<path fill="#FFFFFF" d="M85.957,80.254c0.032-0.321,0.05-0.646,0.05-0.975c0-3.781-2.221-7.035-5.425-8.554
		C78.109,73.014,72,79.924,76.957,88.72c3.684-0.165,6.82-2.413,8.237-5.613c0.014,0,0.024,0.008,0.038,0.008
		c0.847,0,1.534-0.688,1.534-1.534C86.766,81.002,86.431,80.516,85.957,80.254z"/>
</g>
</svg>