<!-- Generator: Adobe Illustrator 18.1.1, SVG Export Plug-In  -->
<svg version="1.1"
	 xmlns="http://www.w3.org/2000/svg" xmlns:xlink="http://www.w3.org/1999/xlink" xmlns:a="http://ns.adobe.com/AdobeSVGViewerExtensions/3.0/"
	 x="0px" y="0px" width="30px" height="30px" viewBox="0 0 30 30" enable-background="new 0 0 30 30" xml:space="preserve">
<defs>
</defs>
<g>
	<g>
		<path fill="#FFFFFF" d="M24.201,0H5.797C2.6,0,0,2.6,0,5.797v6.125v12.281C0,27.4,2.6,30,5.797,30h18.404
			C27.399,30,30,27.4,30,24.203V11.922V5.797C30,2.6,27.399,0,24.201,0z M25.865,3.459l0.662-0.004v0.662v4.422l-5.066,0.017
			l-0.018-5.084L25.865,3.459z M10.719,11.922c0.961-1.33,2.52-2.201,4.281-2.201s3.32,0.871,4.281,2.201
			c0.625,0.867,1,1.93,1,3.078c0,2.91-2.371,5.279-5.281,5.279c-2.912,0-5.281-2.369-5.281-5.279
			C9.719,13.852,10.094,12.789,10.719,11.922z M27.078,24.203c0,1.586-1.291,2.875-2.877,2.875H5.797
			c-1.586,0-2.875-1.289-2.875-2.875V11.922H7.4C7.014,12.873,6.797,13.912,6.797,15c0,4.523,3.68,8.203,8.203,8.203
			c4.524,0,8.203-3.68,8.203-8.203c0-1.088-0.219-2.127-0.605-3.078h4.48V24.203z"/>
	</g>
</g>
</svg>