<!-- Generator: Adobe Illustrator 18.1.1, SVG Export Plug-In  -->
<svg version="1.1"
	 xmlns="http://www.w3.org/2000/svg" xmlns:xlink="http://www.w3.org/1999/xlink" xmlns:a="http://ns.adobe.com/AdobeSVGViewerExtensions/3.0/"
	 x="0px" y="0px" width="723.403px" height="207.863px" viewBox="0 0 723.403 207.863" enable-background="new 0 0 723.403 207.863"
	 xml:space="preserve">
<defs>
</defs>
<polygon fill="#FFFFFF" stroke="#000000" stroke-miterlimit="10" points="64.786,26.278 0.812,152.939 134.73,153.181 
	102.969,95.165 91.57,115.758 99.803,132.26 32.41,132.62 65.568,67.629 91.57,115.758 106.199,100.993 "/>
<g>
	<path fill="#FFFFFF" d="M150.246,25.096h27.427l26.92,41.123l26.979-41.123h27.395l-40.638,62.101l43.196,65.984h-27.429
		l-29.479-45.032l-29.469,45.032h-27.602l43.319-66.035L150.246,25.096z"/>
	<path fill="#FFFFFF" d="M288.856,25.096h69.92v23.858h-45.714v23.162h45.714v23.422h-45.714v33.697h45.714v23.945h-69.92V25.096z"
		/>
	<path fill="#FFFFFF" d="M390.505,25.096h23.387l54.805,84.287V25.096h24.381v128.084h-23.454l-54.738-84.025v84.025h-24.38V25.096z
		"/>
	<path fill="#FFFFFF" d="M529.508,25.096h24.207v128.084h-24.207V25.096z"/>
	<path fill="#FFFFFF" d="M707.782,47.606l-17.051,16.255c-11.6-12.26-24.65-18.39-39.149-18.39
		c-12.237,0-22.546,4.184-30.927,12.551s-12.571,18.681-12.571,30.942c0,8.541,1.855,16.125,5.567,22.749
		c3.711,6.625,8.96,11.824,15.746,15.601s14.326,5.665,22.62,5.665c7.075,0,13.541-1.321,19.399-3.966
		c5.857-2.644,12.295-7.452,19.314-14.424l16.529,17.247c-9.463,9.235-18.403,15.638-26.819,19.209
		c-8.417,3.57-18.024,5.356-28.821,5.356c-19.911,0-36.209-6.313-48.892-18.938c-12.684-12.625-19.025-28.806-19.025-48.543
		c0-12.77,2.888-24.12,8.664-34.046c5.775-9.926,14.047-17.907,24.815-23.945c10.768-6.037,22.363-9.056,34.786-9.056
		c10.564,0,20.737,2.231,30.519,6.694C692.268,33.031,700.699,39.377,707.782,47.606z"/>
</g>
</svg>