<!-- Generator: Adobe Illustrator 18.1.1, SVG Export Plug-In  -->
<svg version="1.1"
	 xmlns="http://www.w3.org/2000/svg" xmlns:xlink="http://www.w3.org/1999/xlink" xmlns:a="http://ns.adobe.com/AdobeSVGViewerExtensions/3.0/"
	 x="0px" y="0px" width="30.003px" height="24px" viewBox="0 0 30.003 24" enable-background="new 0 0 30.003 24"
	 xml:space="preserve">
<defs>
</defs>
<g>
	<g>
		<path fill="#FFFFFF" d="M29.175,0.442c-1.189,0.695-2.508,1.2-3.91,1.472C24.144,0.736,22.544,0,20.772,0
			c-3.398,0-6.154,2.713-6.154,6.059c0,0.475,0.055,0.936,0.158,1.38C9.661,7.187,5.126,4.775,2.09,1.109
			C1.561,2.003,1.256,3.045,1.256,4.156c0,2.101,1.089,3.956,2.739,5.042C2.987,9.166,2.037,8.894,1.207,8.44
			c0,0.025,0,0.051,0,0.076c0,2.935,2.122,5.384,4.938,5.942c-0.518,0.138-1.061,0.212-1.623,0.212
			c-0.397,0-0.781-0.038-1.158-0.109c0.785,2.406,3.057,4.159,5.75,4.208c-2.107,1.625-4.76,2.594-7.645,2.594
			c-0.498,0-0.986-0.029-1.469-0.084C2.726,22.997,5.962,24,9.437,24c11.322,0,17.512-9.231,17.512-17.238
			c0-0.262-0.004-0.525-0.016-0.784c1.201-0.854,2.246-1.921,3.07-3.137c-1.104,0.483-2.289,0.807-3.535,0.954
			C27.739,3.045,28.714,1.858,29.175,0.442z"/>
	</g>
</g>
</svg>